<mxfile host="app.diagrams.net" modified="2023-12-19T09:29:24.805Z" agent="Mozilla/5.0 (Macintosh; Intel Mac OS X 10_15_7) AppleWebKit/537.36 (KHTML, like Gecko) Chrome/120.0.0.0 Safari/537.36" etag="97LV1erLQFvNVmq9Wh6R" version="22.1.11" type="github">
  <diagram name="第 1 页" id="Jk92sVyREgxIp7esV87O">
    <mxGraphModel dx="2514" dy="799" grid="1" gridSize="10" guides="1" tooltips="1" connect="1" arrows="1" fold="1" page="1" pageScale="1" pageWidth="827" pageHeight="1169" background="#ffffff" math="0" shadow="0">
      <root>
        <mxCell id="0" />
        <mxCell id="1" parent="0" />
        <mxCell id="qIIZnsBc9X34PWoDshDJ-1" value="" style="rounded=0;whiteSpace=wrap;html=1;" vertex="1" parent="1">
          <mxGeometry x="-240" y="70" width="1340" height="910" as="geometry" />
        </mxCell>
        <mxCell id="qIIZnsBc9X34PWoDshDJ-3" value="盘多啦主要业务模块" style="text;html=1;strokeColor=none;fillColor=none;align=center;verticalAlign=middle;whiteSpace=wrap;rounded=0;" vertex="1" parent="1">
          <mxGeometry x="330" y="10" width="176" height="30" as="geometry" />
        </mxCell>
        <mxCell id="qIIZnsBc9X34PWoDshDJ-4" value="" style="rounded=0;whiteSpace=wrap;html=1;" vertex="1" parent="1">
          <mxGeometry x="-210" y="220" width="350" height="700" as="geometry" />
        </mxCell>
        <mxCell id="qIIZnsBc9X34PWoDshDJ-5" value="用户中心" style="text;html=1;strokeColor=none;fillColor=none;align=center;verticalAlign=middle;whiteSpace=wrap;rounded=0;" vertex="1" parent="1">
          <mxGeometry x="-90" y="220" width="60" height="30" as="geometry" />
        </mxCell>
        <mxCell id="qIIZnsBc9X34PWoDshDJ-7" value="" style="rounded=0;whiteSpace=wrap;html=1;" vertex="1" parent="1">
          <mxGeometry x="-210" y="110" width="280" height="50" as="geometry" />
        </mxCell>
        <mxCell id="qIIZnsBc9X34PWoDshDJ-8" value="微信登录" style="rounded=0;whiteSpace=wrap;html=1;" vertex="1" parent="1">
          <mxGeometry x="-200" y="120" width="60" height="30" as="geometry" />
        </mxCell>
        <mxCell id="qIIZnsBc9X34PWoDshDJ-9" value="账号登录" style="rounded=0;whiteSpace=wrap;html=1;" vertex="1" parent="1">
          <mxGeometry x="-20" y="120" width="60" height="30" as="geometry" />
        </mxCell>
        <mxCell id="qIIZnsBc9X34PWoDshDJ-10" value="手机号登录" style="rounded=0;whiteSpace=wrap;html=1;" vertex="1" parent="1">
          <mxGeometry x="-130" y="120" width="90" height="30" as="geometry" />
        </mxCell>
        <mxCell id="qIIZnsBc9X34PWoDshDJ-11" value="注册" style="rounded=0;whiteSpace=wrap;html=1;" vertex="1" parent="1">
          <mxGeometry x="-210" y="180" width="60" height="30" as="geometry" />
        </mxCell>
        <mxCell id="qIIZnsBc9X34PWoDshDJ-12" value="" style="rounded=0;whiteSpace=wrap;html=1;" vertex="1" parent="1">
          <mxGeometry x="-180" y="250" width="280" height="180" as="geometry" />
        </mxCell>
        <mxCell id="qIIZnsBc9X34PWoDshDJ-14" value="文件管理" style="text;html=1;strokeColor=none;fillColor=none;align=center;verticalAlign=middle;whiteSpace=wrap;rounded=0;" vertex="1" parent="1">
          <mxGeometry x="-250" y="270" width="60" height="30" as="geometry" />
        </mxCell>
        <mxCell id="qIIZnsBc9X34PWoDshDJ-16" value="查看文件" style="rounded=0;whiteSpace=wrap;html=1;" vertex="1" parent="1">
          <mxGeometry x="-170" y="260" width="60" height="30" as="geometry" />
        </mxCell>
        <mxCell id="qIIZnsBc9X34PWoDshDJ-17" value="编辑文件" style="rounded=0;whiteSpace=wrap;html=1;" vertex="1" parent="1">
          <mxGeometry x="-90" y="260" width="60" height="30" as="geometry" />
        </mxCell>
        <mxCell id="qIIZnsBc9X34PWoDshDJ-18" value="删除文件" style="rounded=0;whiteSpace=wrap;html=1;" vertex="1" parent="1">
          <mxGeometry x="10" y="260" width="60" height="30" as="geometry" />
        </mxCell>
        <mxCell id="qIIZnsBc9X34PWoDshDJ-19" value="上传文件" style="rounded=0;whiteSpace=wrap;html=1;" vertex="1" parent="1">
          <mxGeometry x="-170" y="320" width="60" height="30" as="geometry" />
        </mxCell>
        <mxCell id="qIIZnsBc9X34PWoDshDJ-20" value="设置文件价格" style="rounded=0;whiteSpace=wrap;html=1;" vertex="1" parent="1">
          <mxGeometry x="-90" y="320" width="90" height="30" as="geometry" />
        </mxCell>
        <mxCell id="qIIZnsBc9X34PWoDshDJ-21" value="文件详情" style="rounded=0;whiteSpace=wrap;html=1;" vertex="1" parent="1">
          <mxGeometry x="10" y="320" width="60" height="30" as="geometry" />
        </mxCell>
        <mxCell id="qIIZnsBc9X34PWoDshDJ-22" value="禁用文件" style="rounded=0;whiteSpace=wrap;html=1;" vertex="1" parent="1">
          <mxGeometry x="-170" y="380" width="60" height="30" as="geometry" />
        </mxCell>
        <mxCell id="qIIZnsBc9X34PWoDshDJ-23" value="" style="rounded=0;whiteSpace=wrap;html=1;" vertex="1" parent="1">
          <mxGeometry x="-180" y="480" width="280" height="180" as="geometry" />
        </mxCell>
        <mxCell id="qIIZnsBc9X34PWoDshDJ-24" value="资金管理" style="text;html=1;strokeColor=none;fillColor=none;align=center;verticalAlign=middle;whiteSpace=wrap;rounded=0;" vertex="1" parent="1">
          <mxGeometry x="-250" y="520" width="60" height="30" as="geometry" />
        </mxCell>
        <mxCell id="qIIZnsBc9X34PWoDshDJ-25" value="查看余额" style="rounded=0;whiteSpace=wrap;html=1;" vertex="1" parent="1">
          <mxGeometry x="-170" y="500" width="60" height="30" as="geometry" />
        </mxCell>
        <mxCell id="qIIZnsBc9X34PWoDshDJ-26" value="资金明细" style="rounded=0;whiteSpace=wrap;html=1;" vertex="1" parent="1">
          <mxGeometry x="-80" y="500" width="60" height="30" as="geometry" />
        </mxCell>
        <mxCell id="qIIZnsBc9X34PWoDshDJ-27" value="提现" style="rounded=0;whiteSpace=wrap;html=1;" vertex="1" parent="1">
          <mxGeometry x="20" y="500" width="60" height="30" as="geometry" />
        </mxCell>
        <mxCell id="qIIZnsBc9X34PWoDshDJ-28" value="统计报表" style="rounded=0;whiteSpace=wrap;html=1;" vertex="1" parent="1">
          <mxGeometry x="-170" y="555" width="60" height="30" as="geometry" />
        </mxCell>
        <mxCell id="qIIZnsBc9X34PWoDshDJ-31" value="" style="rounded=0;whiteSpace=wrap;html=1;" vertex="1" parent="1">
          <mxGeometry x="239" y="220" width="350" height="530" as="geometry" />
        </mxCell>
        <mxCell id="qIIZnsBc9X34PWoDshDJ-32" value="用户端" style="text;html=1;strokeColor=none;fillColor=none;align=center;verticalAlign=middle;whiteSpace=wrap;rounded=0;" vertex="1" parent="1">
          <mxGeometry x="388" y="220" width="60" height="30" as="geometry" />
        </mxCell>
        <mxCell id="qIIZnsBc9X34PWoDshDJ-34" value="" style="rounded=0;whiteSpace=wrap;html=1;" vertex="1" parent="1">
          <mxGeometry x="285" y="250" width="280" height="180" as="geometry" />
        </mxCell>
        <mxCell id="qIIZnsBc9X34PWoDshDJ-35" value="首页" style="text;html=1;strokeColor=none;fillColor=none;align=center;verticalAlign=middle;whiteSpace=wrap;rounded=0;" vertex="1" parent="1">
          <mxGeometry x="210" y="280" width="60" height="30" as="geometry" />
        </mxCell>
        <mxCell id="qIIZnsBc9X34PWoDshDJ-36" value="文件推荐" style="rounded=0;whiteSpace=wrap;html=1;" vertex="1" parent="1">
          <mxGeometry x="300" y="270" width="60" height="30" as="geometry" />
        </mxCell>
        <mxCell id="qIIZnsBc9X34PWoDshDJ-37" value="文件查询" style="rounded=0;whiteSpace=wrap;html=1;" vertex="1" parent="1">
          <mxGeometry x="388" y="270" width="60" height="30" as="geometry" />
        </mxCell>
        <mxCell id="qIIZnsBc9X34PWoDshDJ-38" value="最新上传" style="rounded=0;whiteSpace=wrap;html=1;" vertex="1" parent="1">
          <mxGeometry x="480" y="270" width="60" height="30" as="geometry" />
        </mxCell>
        <mxCell id="qIIZnsBc9X34PWoDshDJ-39" value="编辑推荐" style="rounded=0;whiteSpace=wrap;html=1;" vertex="1" parent="1">
          <mxGeometry x="300" y="340" width="60" height="30" as="geometry" />
        </mxCell>
        <mxCell id="qIIZnsBc9X34PWoDshDJ-40" value="文件列表" style="rounded=0;whiteSpace=wrap;html=1;" vertex="1" parent="1">
          <mxGeometry x="300" y="470" width="60" height="30" as="geometry" />
        </mxCell>
        <mxCell id="qIIZnsBc9X34PWoDshDJ-41" value="文件详情" style="rounded=0;whiteSpace=wrap;html=1;" vertex="1" parent="1">
          <mxGeometry x="388" y="470" width="60" height="30" as="geometry" />
        </mxCell>
        <mxCell id="qIIZnsBc9X34PWoDshDJ-42" value="文件下载" style="rounded=0;whiteSpace=wrap;html=1;" vertex="1" parent="1">
          <mxGeometry x="490" y="470" width="60" height="30" as="geometry" />
        </mxCell>
        <mxCell id="qIIZnsBc9X34PWoDshDJ-43" value="搜索页" style="text;html=1;strokeColor=none;fillColor=none;align=center;verticalAlign=middle;whiteSpace=wrap;rounded=0;" vertex="1" parent="1">
          <mxGeometry x="210" y="470" width="60" height="30" as="geometry" />
        </mxCell>
        <mxCell id="qIIZnsBc9X34PWoDshDJ-46" value="" style="rounded=0;whiteSpace=wrap;html=1;" vertex="1" parent="1">
          <mxGeometry x="690" y="220" width="350" height="530" as="geometry" />
        </mxCell>
        <mxCell id="qIIZnsBc9X34PWoDshDJ-47" value="管理端" style="text;html=1;strokeColor=none;fillColor=none;align=center;verticalAlign=middle;whiteSpace=wrap;rounded=0;" vertex="1" parent="1">
          <mxGeometry x="827" y="220" width="60" height="30" as="geometry" />
        </mxCell>
        <mxCell id="qIIZnsBc9X34PWoDshDJ-48" value="文件审核" style="rounded=0;whiteSpace=wrap;html=1;" vertex="1" parent="1">
          <mxGeometry x="720" y="270" width="60" height="30" as="geometry" />
        </mxCell>
        <mxCell id="qIIZnsBc9X34PWoDshDJ-49" value="文件操作" style="rounded=0;whiteSpace=wrap;html=1;" vertex="1" parent="1">
          <mxGeometry x="835" y="270" width="60" height="30" as="geometry" />
        </mxCell>
        <mxCell id="qIIZnsBc9X34PWoDshDJ-50" value="用户编辑" style="rounded=0;whiteSpace=wrap;html=1;" vertex="1" parent="1">
          <mxGeometry x="720" y="360" width="60" height="30" as="geometry" />
        </mxCell>
        <mxCell id="qIIZnsBc9X34PWoDshDJ-51" value="订单管理" style="rounded=0;whiteSpace=wrap;html=1;" vertex="1" parent="1">
          <mxGeometry x="720" y="470" width="60" height="30" as="geometry" />
        </mxCell>
        <mxCell id="qIIZnsBc9X34PWoDshDJ-52" value="微信支付" style="rounded=0;whiteSpace=wrap;html=1;" vertex="1" parent="1">
          <mxGeometry x="300" y="530" width="60" height="30" as="geometry" />
        </mxCell>
        <mxCell id="qIIZnsBc9X34PWoDshDJ-53" value="支付宝支付" style="rounded=0;whiteSpace=wrap;html=1;" vertex="1" parent="1">
          <mxGeometry x="388" y="530" width="82" height="30" as="geometry" />
        </mxCell>
        <mxCell id="qIIZnsBc9X34PWoDshDJ-54" value="" style="rounded=0;whiteSpace=wrap;html=1;" vertex="1" parent="1">
          <mxGeometry x="-180" y="710" width="280" height="180" as="geometry" />
        </mxCell>
        <mxCell id="qIIZnsBc9X34PWoDshDJ-55" value="订单管理" style="text;html=1;strokeColor=none;fillColor=none;align=center;verticalAlign=middle;whiteSpace=wrap;rounded=0;" vertex="1" parent="1">
          <mxGeometry x="-250" y="770" width="60" height="30" as="geometry" />
        </mxCell>
        <mxCell id="qIIZnsBc9X34PWoDshDJ-56" value="购买订单" style="rounded=0;whiteSpace=wrap;html=1;" vertex="1" parent="1">
          <mxGeometry x="-170" y="740" width="60" height="30" as="geometry" />
        </mxCell>
        <mxCell id="qIIZnsBc9X34PWoDshDJ-57" value="文件订单" style="rounded=0;whiteSpace=wrap;html=1;" vertex="1" parent="1">
          <mxGeometry x="-90" y="740" width="60" height="30" as="geometry" />
        </mxCell>
      </root>
    </mxGraphModel>
  </diagram>
</mxfile>
